<?xml version="1.0" encoding="UTF-8" standalone="no"?>
<svg
   xmlns:dc="http://purl.org/dc/elements/1.1/"
   xmlns:cc="http://creativecommons.org/ns#"
   xmlns:rdf="http://www.w3.org/1999/02/22-rdf-syntax-ns#"
   xmlns:svg="http://www.w3.org/2000/svg"
   xmlns="http://www.w3.org/2000/svg"
   xmlns:sodipodi="http://sodipodi.sourceforge.net/DTD/sodipodi-0.dtd"
   xmlns:inkscape="http://www.inkscape.org/namespaces/inkscape"
   height="1024"
   width="3584"
   xml:space="preserve"
   viewBox="0 0 3584 1024"
   y="0px"
   x="0px"
   id="Layer_1"
   version="1.1"
   sodipodi:docname="wulkanowy-full-flat.svg"
   inkscape:version="0.92.2 (5c3e80d, 2017-08-06)"><sodipodi:namedview
     pagecolor="#ffffff"
     bordercolor="#666666"
     borderopacity="1"
     objecttolerance="10"
     gridtolerance="10"
     guidetolerance="10"
     inkscape:pageopacity="0"
     inkscape:pageshadow="2"
     inkscape:window-width="1920"
     inkscape:window-height="1017"
     id="namedview25"
     showgrid="false"
     inkscape:zoom="0.33928571"
     inkscape:cx="1860.4549"
     inkscape:cy="586.56969"
     inkscape:window-x="-8"
     inkscape:window-y="-8"
     inkscape:window-maximized="1"
     inkscape:current-layer="text8460" /><metadata
     id="metadata15"><rdf:RDF><cc:Work
         rdf:about=""><dc:format>image/svg+xml</dc:format><dc:type
           rdf:resource="http://purl.org/dc/dcmitype/StillImage" /><dc:title /></cc:Work></rdf:RDF></metadata><defs
     id="defs13" /><style
     id="style2"
     type="text/css">
	.st0{fill:#D32F2F;}
	.st1{fill:#AD2A2A;}
	.st2{fill:#FFFFFF;}
</style><g
     style="display:none"
     id="layer4"><rect
       style="display:inline;fill:#d32f2f;stroke-width:1.02195609"
       height="1024"
       width="3584"
       class="st0"
       y="0"
       x="0"
       id="XMLID_57_" /></g><g
     style="display:none"
     id="layer3"><path
       id="path18992"
       d="M 3046.8164,390.66602 3134.3164,542 v 91.33398 L 3524.9824,1024 H 3584 V 732.18359 L 3242.4824,390.66602 h -23.666 l -53.0352,94.63086 -94.6308,-94.63086 z"
       style="font-style:normal;font-variant:normal;font-weight:300;font-stretch:normal;font-size:341.33334351px;line-height:1.25;font-family:Roboto;-inkscape-font-specification:'Roboto Light';letter-spacing:0px;word-spacing:0px;display:inline;fill:#ad2a2a;fill-opacity:1;stroke:none" /><path
       id="path18990"
       d="m 2746.9824,390.66602 62,242.66796 L 3199.6484,1024 H 3584 V 940.68359 L 3033.9824,390.66602 h -21 l -21.9043,90.92773 -90.9277,-90.92773 h -18.5 l -25.4043,88.26367 -88.2637,-88.26367 z"
       style="font-style:normal;font-variant:normal;font-weight:300;font-stretch:normal;font-size:341.33334351px;line-height:1.25;font-family:Roboto;-inkscape-font-specification:'Roboto Light';letter-spacing:0px;word-spacing:0px;display:inline;fill:#ad2a2a;fill-opacity:1;stroke:none" /><path
       id="path18988"
       d="m 2620.8164,387.33398 c -18.6667,0 -35.1667,4.60982 -49.5,13.83204 -14.3333,9.11111 -25.4451,22.22287 -33.334,39.33398 -7.7778,17 -11.666,36.5549 -11.666,58.66602 v 25 c 0,34.44444 8.7216,61.83463 26.166,82.16796 L 2970.1484,1024 h 323.168 l -623.166,-623.16602 c -14.2222,-9 -30.6673,-13.5 -49.334,-13.5 z"
       style="font-style:normal;font-variant:normal;font-weight:300;font-stretch:normal;font-size:341.33334351px;line-height:1.25;font-family:Roboto;-inkscape-font-specification:'Roboto Light';letter-spacing:0px;word-spacing:0px;display:inline;fill:#ad2a2a;fill-opacity:1;stroke:none" /><path
       id="path18984"
       d="M 2293.4824,390.66602 V 633.33398 L 2684.1484,1024 h 423.336 l -633.334,-633.33398 h -20.334 v 139.66601 l -139.666,-139.66601 z"
       style="font-style:normal;font-variant:normal;font-weight:300;font-stretch:normal;font-size:341.33334351px;line-height:1.25;font-family:Roboto;-inkscape-font-specification:'Roboto Light';letter-spacing:0px;word-spacing:0px;display:inline;fill:#ad2a2a;fill-opacity:1;stroke:none" /><path
       id="path18978"
       d="M 1864.8164,390.66602 V 633.33398 L 2255.4824,1024 h 413.334 l -633.334,-633.33398 h -25.832 l -60.584,63.75 -63.75,-63.75 z"
       style="font-style:normal;font-variant:normal;font-weight:300;font-stretch:normal;font-size:341.33334351px;line-height:1.25;font-family:Roboto;-inkscape-font-specification:'Roboto Light';letter-spacing:0px;word-spacing:0px;display:inline;fill:#ad2a2a;fill-opacity:1;stroke:none" /><path
       id="path18976"
       d="M 1684.8164,390.66602 V 633.33398 L 2075.4824,1024 h 263.334 l -633.334,-633.33398 z"
       style="font-style:normal;font-variant:normal;font-weight:300;font-stretch:normal;font-size:341.33334351px;line-height:1.25;font-family:Roboto;-inkscape-font-specification:'Roboto Light';letter-spacing:0px;word-spacing:0px;display:inline;fill:#ad2a2a;fill-opacity:1;stroke:none" /><path
       id="path19059"
       d="m 1133.6504,390.66602 62,242.66796 L 1586.3164,1024 h 467.668 l -633.334,-633.33398 h -21 l -21.9043,90.92773 -90.9277,-90.92773 h -18.5 l -25.4043,88.26367 -88.2637,-88.26367 z"
       style="font-style:normal;font-variant:normal;font-weight:300;font-stretch:normal;font-size:341.33334351px;line-height:1.25;font-family:Roboto;-inkscape-font-specification:'Roboto Light';letter-spacing:0px;word-spacing:0px;display:inline;fill:#ad2a2a;fill-opacity:1;stroke:none" /><path
       id="path18966"
       d="m 1456.4824,390.66602 v 167.16796 c 0.5556,24.66667 8.5007,44 23.834,58 L 1888.4824,1024 h 372.168 l -633.334,-633.33398 h -20.666 V 520.5 l -129.834,-129.83398 z"
       style="font-style:normal;font-variant:normal;font-weight:300;font-stretch:normal;font-size:341.33334351px;line-height:1.25;font-family:Roboto;-inkscape-font-specification:'Roboto Light';letter-spacing:0px;word-spacing:0px;display:inline;fill:#ad2a2a;fill-opacity:1;stroke:none" /><path
       id="path18982"
       d="M 2146.3164,390.66602 2054.4824,633.33398 2445.1484,1024 h 354.002 l -633.334,-633.33398 z"
       style="font-style:normal;font-variant:normal;font-weight:300;font-stretch:normal;font-size:341.33334351px;line-height:1.25;font-family:Roboto;-inkscape-font-specification:'Roboto Light';letter-spacing:0px;word-spacing:0px;display:inline;fill:#ad2a2a;fill-opacity:1;stroke:none" /><path
       id="XMLID_64_"
       d="M 637.15234,214.95703 487.75,364.35742 466.01562,386.0918 c 0.31273,0.31271 0.54872,0.54666 0.70508,0.85937 0.0782,0.23454 0.23432,0.54671 0.3125,0.78125 0.31272,0.54726 0.47071,1.17339 0.47071,1.79883 0.0782,0.54726 -0.0799,1.01725 -0.31446,1.48633 -0.23454,0.54725 -0.70285,1.40597 -1.09375,1.79687 l 150.8086,149.71485 -23.68946,23.6875 -12.74414,-12.74219 -13.44726,-13.44727 -78.80469,-78.80664 -11.17969,-11.17968 -7.5039,-7.50391 -35.41602,-35.17969 -3.08984,-0.98047 -4.33594,4.26367 v 0.46876 c 0,7.34888 0.38998,15.00865 -1.48633,22.20117 -0.85998,3.28355 -2.34444,6.25595 -4.14258,8.91406 -0.15636,0.15636 -0.23627,0.23426 -0.31445,0.39062 -1.87631,2.57993 -4.06471,4.84619 -6.48828,6.95704 -5.3944,4.53442 -11.25752,8.67896 -17.27734,12.50976 -0.15637,0.0782 -0.23427,0.1562 -0.39063,0.23438 -2.11085,1.40723 -4.3012,2.7354 -6.49023,4.06445 -8.91248,5.39439 -18.37192,10.08772 -28.37891,13.13672 -1.25087,0.31272 -2.42317,-0.001 -3.36133,-0.70508 l -6.01953,5.94141 c 1.25087,0.62543 2.03136,1.87776 1.875,3.51953 -10e-6,0.15636 -0.0762,0.23231 -0.0762,0.38867 0,0.0782 -0.0781,0.23628 -0.0781,0.31445 -1.32905,4.45624 -2.34505,8.98897 -3.2832,13.60156 -0.15636,0.70363 -0.23622,1.33154 -0.39258,2.03516 -0.85997,4.37806 -1.64209,8.83288 -2.3457,13.21094 0.23453,5.3944 0.39263,11.0234 0.31445,16.65234 v 0.39258 c -0.0782,7.66161 -0.78373,15.32114 -2.8164,22.51367 -2.26721,8.28704 -6.64376,15.63728 -10.55274,23.22071 -0.0782,0.15636 -0.15815,0.23426 -0.23633,0.39062 -1.25088,2.42357 -2.49924,4.92399 -3.59375,7.50391 -4.84714,11.33605 -7.42749,23.92328 -10.55468,35.88476 -0.23454,0.70362 -0.39046,1.48578 -0.625,2.26758 0,0.15636 -0.0801,0.23427 -0.0801,0.39063 -2.97082,11.10151 -6.09819,22.28173 -10.94532,32.75781 -1.40724,2.97082 -2.81531,5.86322 -4.3789,8.75586 -0.15636,0.23454 -0.23231,0.46858 -0.38867,0.70312 -0.62544,1.09451 -1.25152,2.26871 -1.87696,3.44141 -0.0782,0.15636 -0.15619,0.23426 -0.23437,0.39062 -3.51809,6.25438 -7.27098,12.43118 -10.78906,18.68555 -5.0035,8.8343 -8.99075,18.13635 -13.83789,27.04883 -0.0782,0.15636 -0.1562,0.23426 -0.23438,0.39062 -0.70362,1.32905 -1.48579,2.65728 -2.26758,3.98633 -5.0035,8.20887 -10.63256,16.0279 -16.57422,23.61133 -0.15635,0.15636 -0.23426,0.3124 -0.39062,0.46875 -0.7818,1.01634 -1.48578,1.95443 -2.26758,2.89258 -3.90898,4.92532 -7.97378,9.85009 -11.96094,14.77539 -0.0782,0.15637 -0.23432,0.23622 -0.3125,0.39258 -8.75612,10.71061 -17.35628,21.49761 -24.54883,33.30273 0,0.70362 -0.15602,1.33159 -0.46874,1.95703 -1.25087,2.42357 -2.65734,4.68971 -3.90821,7.11328 -0.0782,0.15636 0.62511,1.24989 0.46875,1.40625 L 429.86133,1024 H 1463.0215 L 661.85547,222.92969 c -0.93816,2.11087 -5.23681,1.40935 -7.34766,-0.23242 -1.71995,-1.32906 -3.12603,-3.05147 -4.45508,-4.84961 -0.62544,-0.31271 -1.25168,-0.62288 -1.64257,-0.85743 -2.89265,-1.40723 -6.09933,-1.48632 -9.30469,-1.48632 -0.7818,-0.0782 -1.40588,-0.23416 -1.95313,-0.54688 z m -206.12304,191.41992 0.11914,-0.11523 -0.23438,0.0781 z"
       style="display:inline;fill:#ad2a2a;stroke-width:0.78179646" /></g><g
     style="display:inline"
     id="layer2"><path
       style="fill:#ffffff;stroke-width:0.78179646"
       d="m 385.17894,776.98989 c 0.62544,2.03267 0.31272,4.2217 -0.7818,6.01983 l -15.08867,24.47023 c -1.48541,2.42357 -4.2217,3.98716 -7.19253,3.98716 H 220.92351 c -6.56709,0 -10.55425,-6.8798 -7.03616,-12.03966 l 90.92292,-133.92173 c 0.54726,-0.78179 0.85997,-1.64177 1.09451,-2.50174 l 41.66975,-177.93687 c 0.46908,-2.11085 1.87631,-3.90898 3.90898,-5.00349 l 56.4457,-30.95914 c 2.03267,-1.09452 3.43991,-2.89265 3.90899,-5.08168 l 7.58342,-33.06999 c 1.56359,-6.8798 11.41423,-8.36522 15.32321,-2.34538 l 2.73629,4.37806 c 1.17269,1.87631 1.48541,4.2217 0.70362,6.33255 l -51.44221,148.69767 c -0.3909,1.1727 -0.54726,2.42357 -0.31272,3.67445 l 12.82146,71.14347 c 0.23454,1.40723 0.0782,2.89265 -0.54725,4.2217 l -30.56824,68.64172 c -0.70362,1.64178 -0.85998,3.43991 -0.31272,5.08168 z m 417.94836,34.47722 h -97.25548 c -2.81446,0 -5.39439,-1.40723 -6.95798,-3.59626 l -65.43636,-92.01744 c -0.3909,-0.62543 -0.7818,-1.25087 -1.01634,-1.95449 L 600.01659,619.1452 c -0.62544,-1.87631 -2.11085,-3.51809 -3.98716,-4.45624 L 516.59891,574.5828 c -2.18903,-1.09451 -3.75262,-3.12718 -4.2217,-5.39439 l -11.72694,-58.16566 c -0.15636,-0.93815 -0.54726,-1.87631 -1.1727,-2.73628 L 472.5056,468.64939 c -1.48542,-2.18903 -1.71995,-4.84714 -0.62544,-7.19253 l 16.41772,-35.10266 c 1.25088,-2.6581 3.98717,-4.45624 7.11435,-4.6126 l 30.49006,-1.79813 c 1.79813,-0.0782 3.43991,-0.70361 4.76896,-1.79813 l 22.43756,-17.43406 c 4.2217,-3.28354 10.63243,-1.87631 12.89964,2.73629 l 77.31966,157.29744 c 0.31272,0.70361 0.54726,1.40723 0.70362,2.11085 l 9.53792,63.24733 c 0.23453,1.48541 0.85997,2.81446 1.87631,3.90898 l 154.01389,168.5553 c 4.53442,5.0035 0.70362,12.89964 -6.33255,12.89964 z M 424.97238,319.32628 c 0,-17.90314 11.33604,-33.30453 27.59741,-40.49706 -1.1727,-1.95449 -1.87631,-4.06534 -1.87631,-6.33255 0,-8.67794 10.00699,-15.71411 22.2812,-15.71411 0.31271,0 0.54725,0 0.85997,0 5.08168,-8.4434 14.77595,-14.15051 25.87746,-14.15051 0.7818,0 1.5636,0 2.34539,0.0782 1.01634,0.0782 2.03267,-0.3909 2.57993,-1.1727 8.20886,-12.50874 29.00465,-21.42122 53.31851,-21.42122 8.99066,0 17.51224,1.25088 25.09567,3.36173 1.79813,-2.97083 5.78529,-5.0035 10.39789,-5.0035 5.23804,0 9.69428,2.65811 11.02333,6.33255 6.41073,-7.42707 17.2777,-12.2742 29.63008,-12.2742 19.70127,0 35.64992,12.43056 35.64992,27.75377 0,1.87631 -0.23454,3.67444 -0.70362,5.47257 -0.31271,1.25088 0.3909,2.50175 1.71996,2.97083 12.58692,4.6126 21.1085,13.36872 21.1085,23.37571 0,11.41423 -11.02333,21.18669 -26.58108,25.01749 -1.25087,0.31272 -2.03267,1.40723 -2.03267,2.57993 0,0.0782 0,0.15635 0,0.23453 0,8.8343 -8.75612,16.10501 -20.01399,16.88681 0.0782,0.3909 0.0782,0.78179 0.0782,1.25087 0,16.96498 -32.28819,30.64642 -72.08163,30.64642 -8.59976,0 -16.80862,-0.62544 -24.39204,-1.79813 0,0.15636 0,0.23454 0,0.3909 0,7.03616 -9.06884,12.74328 -20.17035,12.74328 -0.62544,0 -1.1727,0 -1.71995,-0.0782 0.78179,1.71995 1.17269,3.51808 1.17269,5.39439 0,10.94515 -13.8378,19.77945 -30.95914,19.77945 -1.87631,0 -3.67444,-0.0782 -5.47257,-0.31272 -1.40724,-0.15635 -2.73629,0.70362 -3.04901,2.03268 -1.48541,5.47257 -6.25437,9.45973 -11.96148,9.45973 -6.87981,0 -12.35239,-5.86347 -12.35239,-13.056 0,-3.36172 1.1727,-6.41073 3.12719,-8.67794 0.70362,-0.78179 0.93816,-1.87631 0.46908,-2.81447 -1.09452,-2.03267 -1.5636,-4.14352 -1.5636,-6.41073 v 0 c 0,-1.25087 -1.01633,-2.26721 -2.2672,-2.57992 -21.18669,-4.69078 -37.13533,-22.35938 -37.13533,-43.46788 z m 179.50045,424.6718 c 0.31272,0.93816 0.3909,1.87632 0.3909,2.89265 l -4.53442,57.30568 c -0.31272,4.06534 -3.90898,7.2707 -8.28704,7.2707 H 445.68998 c -3.12718,0 -6.01983,-1.79813 -7.42707,-4.37806 l -24.1575,-44.87511 c -0.15636,-0.23454 -0.23454,-0.46908 -0.31272,-0.70362 l -22.75028,-55.11664 c -0.85997,-1.95449 -0.70361,-4.2217 0.23454,-6.09802 l 37.76077,-73.87976 c 0.93815,-1.79813 1.09451,-3.90898 0.3909,-5.78529 l -18.4504,-51.12948 c -0.62544,-1.79814 -0.54726,-3.83081 0.23454,-5.55076 l 30.80278,-65.59272 c 3.12718,-6.56709 13.36872,-6.01983 15.55775,0.85998 l 9.61609,29.86462 29.31737,78.49236 c 0.78179,2.18903 2.6581,3.90898 5.00349,4.69078 l 62.54372,21.34304 c 2.42357,0.85998 4.29988,2.65811 5.08167,4.92532 z"
       id="XMLID_42_" /><g
       id="text4752"
       style="font-style:normal;font-variant:normal;font-weight:300;font-stretch:normal;font-size:341.33334351px;line-height:1.25;font-family:Roboto;-inkscape-font-specification:'Roboto Light';letter-spacing:0px;word-spacing:0px;fill:#000000;fill-opacity:1;stroke:none"
       aria-label="WULKANOWY" /></g><g
     style="display:inline"
     id="layer1"><g
       aria-label="WULKANOWY"
       style="font-style:normal;font-variant:normal;font-weight:300;font-stretch:normal;font-size:341.33334351px;line-height:1.25;font-family:Roboto;-inkscape-font-specification:'Roboto Light';letter-spacing:0px;word-spacing:0px;fill:#000000;fill-opacity:1;stroke:none"
       id="text8460"><path
         d="m 1198.9832,567.83331 7.5,37.66667 9.1666,-36 52.6667,-178.83334 h 18.5 l 52,178.83334 9,36.33333 8,-38 43.8333,-177.16667 h 21 l -62.1666,242.66667 h -19.6667 l -55,-189.83334 -6.1667,-24 -6,24 -56.3333,189.83334 h -19.6667 l -62,-242.66667 h 21 z"
         style="font-style:normal;font-variant:normal;font-weight:300;font-stretch:normal;font-size:341.33334351px;font-family:Roboto;-inkscape-font-specification:'Roboto Light';fill:#ffffff"
         id="path4764" /><path
         d="m 1627.3165,390.66664 v 165.66667 q -0.1667,24.5 -10.8333,42.66667 -10.6667,18.16667 -30.1667,28 -19.3333,9.66667 -44.5,9.66667 -38.3333,0 -61.5,-20.83334 -23,-21 -23.8333,-58 V 390.66664 h 20.3333 v 164.16667 q 0,30.66667 17.5,47.66667 17.5,16.83333 47.5,16.83333 30,0 47.3333,-17 17.5,-17 17.5,-47.33333 V 390.66664 Z"
         style="font-style:normal;font-variant:normal;font-weight:300;font-stretch:normal;font-size:341.33334351px;font-family:Roboto;-inkscape-font-specification:'Roboto Light';fill:#ffffff"
         id="path4766" /><path
         d="m 1705.4832,615.99998 h 119.8333 v 17.33333 h -140.5 V 390.66664 h 20.6667 z"
         style="font-style:normal;font-variant:normal;font-weight:300;font-stretch:normal;font-size:341.33334351px;font-family:Roboto;-inkscape-font-specification:'Roboto Light';fill:#ffffff"
         id="path4768" /><path
         d="m 1919.4832,512.83331 -34.1667,33.66667 v 86.83333 h -20.5 V 390.66664 h 20.5 v 130.83334 l 124.3333,-130.83334 h 25.8334 l -101.6667,108 109.5,134.66667 h -25 z"
         style="font-style:normal;font-variant:normal;font-weight:300;font-stretch:normal;font-size:341.33334351px;font-family:Roboto;-inkscape-font-specification:'Roboto Light';fill:#ffffff"
         id="path4770" /><path
         d="m 2211.1498,565.33331 h -110.1666 l -25,68 h -21.5 l 91.8333,-242.66667 h 19.5 l 91.8333,242.66667 h -21.3333 z m -103.8333,-17.5 h 97.3333 l -48.6666,-132.16667 z"
         style="font-style:normal;font-variant:normal;font-weight:300;font-stretch:normal;font-size:341.33334351px;font-family:Roboto;-inkscape-font-specification:'Roboto Light';fill:#ffffff"
         id="path4772" /><path
         d="m 2474.1499,633.33331 h -20.5 l -139.5,-207.66667 v 207.66667 h -20.6667 V 390.66664 h 20.6667 l 139.6666,207.83334 V 390.66664 h 20.3334 z"
         style="font-style:normal;font-variant:normal;font-weight:300;font-stretch:normal;font-size:341.33334351px;font-family:Roboto;-inkscape-font-specification:'Roboto Light';fill:#ffffff"
         id="path4774" /><path
         d="m 2715.4832,525.16664 q 0,33.5 -11.6667,58.83334 -11.5,25.33333 -33,39 -21.5,13.66667 -49.6667,13.66667 -42.5,0 -68.6666,-30.33334 -26.1667,-30.5 -26.1667,-82.16667 v -25 q 0,-33.16667 11.6667,-58.66667 11.8333,-25.66666 33.3333,-39.33333 21.5,-13.83333 49.5,-13.83333 28,0 49.3333,13.5 21.5,13.5 33.1667,38.16666 11.6667,24.66667 12.1667,57.16667 z m -20.5,-26.33333 q 0,-43.83334 -19.8334,-68.66667 -19.8333,-24.83333 -54.3333,-24.83333 -33.8333,0 -54,25 -20,24.83333 -20,69.5 v 25.33333 q 0,43.16667 20,68.50001 20,25.16666 54.3333,25.16666 34.8334,0 54.3334,-24.83333 19.5,-25 19.5,-69.5 z"
         style="font-style:normal;font-variant:normal;font-weight:300;font-stretch:normal;font-size:341.33334351px;font-family:Roboto;-inkscape-font-specification:'Roboto Light';fill:#ffffff"
         id="path4776" /><path
         d="m 2812.3165,567.83331 7.5,37.66667 9.1667,-36 52.6667,-178.83334 h 18.5 l 52,178.83334 9,36.33333 8,-38 43.8333,-177.16667 h 21 l -62.1667,242.66667 h -19.6666 l -55,-189.83334 -6.1667,-24 -6,24 -56.3333,189.83334 h -19.6667 l -62,-242.66667 h 21 z"
         style="font-style:normal;font-variant:normal;font-weight:300;font-stretch:normal;font-size:341.33334351px;font-family:Roboto;-inkscape-font-specification:'Roboto Light';fill:#ffffff"
         id="path4778" /><path
         d="m 3144.6499,522.99998 74.1666,-132.33334 h 23.6667 l -87.6667,151.33334 v 91.33333 h -20.5 v -91.33333 l -87.5,-151.33334 h 24.3334 z"
         style="font-style:normal;font-variant:normal;font-weight:300;font-stretch:normal;font-size:341.33334351px;font-family:Roboto;-inkscape-font-specification:'Roboto Light';fill:#ffffff"
         id="path4780" /></g></g></svg>